<svg xmlns="http://www.w3.org/2000/svg" width="28" height="25.909" viewBox="0 0 28 25.909"><g transform="translate(0 -19.114)"><g transform="translate(9.278 40.098)"><path d="M172.118,402.828a2.462,2.462,0,1,0,2.462,2.462A2.465,2.465,0,0,0,172.118,402.828Zm0,3.55a1.088,1.088,0,1,1,1.088-1.088A1.089,1.089,0,0,1,172.118,406.378Z" transform="translate(-169.656 -402.828)"/></g><g transform="translate(17.915 40.098)"><path d="M330.064,402.828a2.462,2.462,0,1,0,2.462,2.462A2.465,2.465,0,0,0,330.064,402.828Zm0,3.55a1.088,1.088,0,1,1,1.088-1.088A1.089,1.089,0,0,1,330.064,406.378Z" transform="translate(-327.601 -402.828)"/></g><g transform="translate(10.445 27.133)"><path d="M201.535,165.755h-9.852a.687.687,0,1,0,0,1.375h9.852a.687.687,0,1,0,0-1.375Z" transform="translate(-190.996 -165.755)"/></g><g transform="translate(10.981 30.703)"><path d="M210.269,231.035h-8.779a.687.687,0,1,0,0,1.375h8.779a.687.687,0,0,0,0-1.375Z" transform="translate(-200.802 -231.035)"/></g><g transform="translate(0 19.114)"><path d="M27.69,24.07a1.369,1.369,0,0,0-1.066-.506H5.21l-.432-2.1a1.377,1.377,0,0,0-.8-.984L.961,19.171a.687.687,0,0,0-.548,1.261l3.018,1.31L6.757,37.889a1.38,1.38,0,0,0,1.347,1.1h16.47a.687.687,0,0,0,0-1.375H8.1l-.4-1.964h17a1.38,1.38,0,0,0,1.347-1.1l1.923-9.334A1.37,1.37,0,0,0,27.69,24.07ZM24.7,34.272H7.416L5.493,24.939H26.624Z" transform="translate(0 -19.114)"/></g></g></svg>